<!-- icon666.com - MILLIONS OF FREE VECTOR ICONS --><svg viewBox="0 0 48 48" xmlns="http://www.w3.org/2000/svg"><g id="Hourglass"><path d="m34 15v-8h-20v8a10 10 0 0 0 5.66 9 10 10 0 0 0 -5.66 9v8h20v-8a10 10 0 0 0 -5.66-9 10 10 0 0 0 5.66-9z" fill="#f5f6e8"></path><path d="m10 1h28v6h-28z" fill="#b28069"></path><path d="m10 41h28v6h-28z" fill="#b28069"></path><path d="m19 11h10a0 0 0 0 1 0 0v5a5 5 0 0 1 -5 5 5 5 0 0 1 -5-5v-5a0 0 0 0 1 0 0z" fill="#fed883"></path><path d="m18 36h12v5h-12z" fill="#fed883"></path><path d="m35 15v-7h3a1 1 0 0 0 1-1v-6a1 1 0 0 0 -1-1h-28a1 1 0 0 0 -1 1v6a1 1 0 0 0 1 1h3v7a10.9 10.9 0 0 0 4.69 9 10.9 10.9 0 0 0 -4.69 9v7h-3a1 1 0 0 0 -1 1v6a1 1 0 0 0 1 1h28a1 1 0 0 0 1-1v-6a1 1 0 0 0 -1-1h-3v-7a10.9 10.9 0 0 0 -4.69-9 10.9 10.9 0 0 0 4.69-9zm-24-13h26v4h-26zm26 44h-26v-4h26zm-13-26a4 4 0 0 1 -4-4v-4h8v4a4 4 0 0 1 -4 4zm5 17v3h-10v-3zm-1.1-12.1a8.93 8.93 0 0 1 5.1 8.1v7h-2v-4a1 1 0 0 0 -1-1h-5v-13.09a6 6 0 0 0 5-5.91v-5a1 1 0 0 0 -1-1h-10a1 1 0 0 0 -1 1v5a6 6 0 0 0 5 5.91v13.09h-5a1 1 0 0 0 -1 1v4h-2v-7a8.93 8.93 0 0 1 5.1-8.1 1 1 0 0 0 0-1.8 8.93 8.93 0 0 1 -5.1-8.1v-7h18v7a8.93 8.93 0 0 1 -5.1 8.1 1 1 0 0 0 0 1.8z"></path></g></svg>
